HIERARCHY
ROOT Hips
{
	OFFSET 0.00 0.00 0.00
	CHANNELS 6 Xposition Yposition Zposition Xrotation Yrotation Zrotation
	JOINT Spine
	{
		OFFSET 0.00000 7.50895 0.00000
		CHANNELS 3 Xrotation Yrotation Zrotation
		JOINT Head
		{
			OFFSET 0.00000 13.86115 0.00000
			CHANNELS 3 Xrotation Yrotation Zrotation
			End Site
			{
				OFFSET 0.00000 4.52755 0.00000
			}
		}
		JOINT LeftShoulder
		{
			OFFSET 0.00000 8.20478 0.00000
			CHANNELS 3 Xrotation Yrotation Zrotation
			JOINT LeftArm
			{
				OFFSET 6.63596 0.00000 0.00000
				CHANNELS 3 Xrotation Yrotation Zrotation
				JOINT LeftForeArm
				{
					OFFSET 10.27422 0.00000 0.00000
					CHANNELS 3 Yrotation Zrotation Xrotation
					JOINT LeftHand
					{
						OFFSET 8.52215 0.00000 0.00000
						CHANNELS 3 Xrotation Yrotation Zrotation
						JOINT LeftHandThumb1
						{
							OFFSET 0.00000 0.00000 0.00000
							CHANNELS 3 Xrotation Zrotation Yrotation
							End Site
							{
								OFFSET 0.00000 0.00000 3.93700
							}
						}
						End Site
						{
							OFFSET 3.93700 0.00000 0.00000
						}
					}
				}
			}
		}
		JOINT RightShoulder
		{
			OFFSET 0.00000 8.20478 0.00000
			CHANNELS 3 Xrotation Yrotation Zrotation
			JOINT RightArm
			{
				OFFSET -6.63596 0.00000 0.00000
				CHANNELS 3 Xrotation Yrotation Zrotation
				JOINT RightForeArm
				{
					OFFSET -10.27422 0.00000 0.00000
					CHANNELS 3 Yrotation Zrotation Xrotation
					JOINT RightHand
					{
						OFFSET -8.52215 0.00000 0.00000
						CHANNELS 3 Xrotation Yrotation Zrotation
						JOINT RightHandThumb1
						{
							OFFSET 0.00000 0.00000 0.00000
							CHANNELS 3 Xrotation Zrotation Yrotation
							End Site
							{
								OFFSET 0.00000 0.00000 3.93700
							}
						}
						End Site
						{
							OFFSET -3.93700 0.00000 0.00000
						}
					}
				}
			}
		}
	}
	JOINT LeftUpLeg
	{
		OFFSET 3.00056 0.00000 0.00000
		CHANNELS 3 Xrotation Yrotation Zrotation
		JOINT LeftLeg
		{
			OFFSET 0.00000 -16.49085 0.00000
			CHANNELS 3 Xrotation Yrotation Zrotation
			JOINT LeftFoot
			{
				OFFSET 0.00000 -14.55658 0.00000
				CHANNELS 3 Xrotation Yrotation Zrotation
				JOINT LeftToeBase
				{
					OFFSET 0.00000 -1.25038 4.66650
					CHANNELS 3 Xrotation Yrotation Zrotation
					End Site
					{
						OFFSET 0.00000 0.00000 2.95275
					}
				}
			}
		}
	}
	JOINT RightUpLeg
	{
		OFFSET -3.00056 0.00000 0.00000
		CHANNELS 3 Xrotation Yrotation Zrotation
		JOINT RightLeg
		{
			OFFSET 0.00000 -16.49085 0.00000
			CHANNELS 3 Xrotation Yrotation Zrotation
			JOINT RightFoot
			{
				OFFSET 0.00000 -14.55658 0.00000
				CHANNELS 3 Xrotation Yrotation Zrotation
				JOINT RightToeBase
				{
					OFFSET 0.00000 -1.25038 4.66650
					CHANNELS 3 Xrotation Yrotation Zrotation
					End Site
					{
						OFFSET 0.00000 0.00000 2.95275
					}
				}
			}
		}
	}
}
MOTION
Frames: 13
Frame Time: 0.008333
 0.9403 34.0829 -1.6004 105.6193 -31.8902 6.8157 -35.1579 -10.9078 9.5999 -57.7914 4.2356 35.5335 -11.6113 12.6676 48.0030 -59.0441 -35.9074 -14.3511 -16.0761 0.0000 16.2640 0.9590 28.7612 -1.9926 33.1476 -0.0000 26.2537 -16.1995 -21.6668 -34.3116 37.4456 -3.7199 47.7089 11.4022 -0.0000 45.1507 0.6071 -1.4448 22.7953 32.8623 0.0000 -24.3270 -100.4030 -1.3682 26.7834 -10.2886 0.0000 0.0000 1.4545 12.6503 -5.9616 5.8537 -0.0000 -0.0000 26.0139 5.6940 -35.3804 99.5392 0.0000 -0.0000 35.9028 -10.2153 23.2633 8.9459 -0.0000 -0.0000
 0.9439 34.0823 -1.6004 105.6390 -31.9115 6.8835 -35.1930 -10.8797 9.5913 -57.7656 4.2170 35.5596 -11.6222 12.6535 48.0531 -58.9852 -35.9146 -14.3131 -16.1184 0.0000 16.1290 0.7594 28.8144 -1.5753 33.1476 -0.0000 26.2537 -16.2099 -21.6647 -34.2838 37.5039 -3.6674 47.6823 11.3864 -0.0000 45.1936 0.6270 -1.4828 22.9260 32.8623 0.0000 -24.3270 -100.3582 -1.2836 26.8294 -10.4184 -0.0000 -0.0000 1.4606 12.7260 -6.2463 6.1785 -0.0000 -0.0000 26.0124 5.7605 -35.3800 99.5436 0.0000 0.0000 35.9394 -10.2169 23.2872 8.9355 0.0000 -0.0000
 0.9491 34.0820 -1.5999 105.6653 -31.9036 6.9549 -35.2370 -10.8830 9.5700 -57.7474 4.1684 35.5839 -11.6187 12.6807 48.0665 -58.9729 -35.9743 -14.2485 -16.1100 0.0000 16.1729 0.8107 28.7255 -1.6864 33.1476 -0.0000 26.2537 -16.2788 -21.6083 -34.2681 37.6152 -3.6620 47.6510 11.4071 -0.0000 45.2725 0.6291 -1.4854 22.9561 32.8623 0.0000 -24.3270 -100.3292 -1.2179 26.8377 -10.5004 0.0000 -0.0000 1.4976 12.7174 -6.3383 6.1770 0.0000 -0.0000 25.9998 5.7964 -35.3749 99.5388 0.0000 0.0000 35.9760 -10.2282 23.3569 8.8284 -0.0000 -0.0000
 0.9554 34.0818 -1.5999 105.6754 -31.8897 7.0249 -35.2603 -10.8790 9.5328 -57.7556 4.0851 35.6292 -11.5966 12.7550 48.0725 -59.1148 -36.0511 -14.2456 -16.0639 0.0000 16.3307 0.8324 28.4895 -1.7447 33.1476 -0.0000 26.2537 -16.2595 -21.6541 -34.2365 37.5997 -3.5658 47.6224 11.3821 -0.0000 45.2732 0.6504 -1.5320 23.0076 32.8623 0.0000 -24.3270 -100.2981 -1.1580 26.8363 -10.5555 0.0000 -0.0000 1.5217 12.7255 -6.3597 6.2377 -0.0000 -0.0000 26.0007 5.8149 -35.3786 99.5326 0.0000 0.0000 35.9827 -10.2307 23.3660 8.8266 -0.0000 0.0000
 0.9615 34.0807 -1.6013 105.6717 -31.8577 7.0737 -35.2738 -10.8728 9.5099 -57.7611 3.9993 35.6196 -11.6440 12.7025 48.0973 -59.0596 -36.0812 -14.1983 -16.0845 0.0000 16.3068 0.6548 28.8227 -1.3580 33.1476 -0.0000 26.2537 -16.2740 -21.6719 -34.2352 37.6330 -3.5165 47.6101 11.3641 -0.0000 45.2730 0.6455 -1.5196 23.0173 32.8623 0.0000 -24.3270 -100.2791 -1.1221 26.8085 -10.5636 -0.0000 0.0000 1.5442 12.7436 -6.4320 6.1503 -0.0000 -0.0000 25.9915 5.7746 -35.3661 99.5269 0.0000 0.0000 35.9167 -10.3281 23.1702 8.9061 -0.0000 0.0000
 0.9690 34.0788 -1.6033 105.6701 -31.8216 7.1499 -35.2970 -10.8445 9.4436 -57.7386 3.8650 35.6819 -11.6992 12.6398 48.1203 -59.0589 -36.1292 -14.1646 -16.0928 0.0000 16.4063 0.6558 28.7042 -1.3652 33.1476 -0.0000 26.2537 -16.2447 -21.7106 -34.1995 37.6232 -3.5100 47.5981 11.3432 -0.0000 45.2707 0.6256 -1.4783 22.9391 32.8623 0.0000 -24.3270 -100.2665 -1.0871 26.7798 -10.5423 0.0000 -0.0000 1.5096 12.7772 -6.4104 6.1798 -0.0000 -0.0000 25.9962 5.7189 -35.3878 99.5187 0.0000 -0.0000 35.8335 -10.4143 23.1142 8.9449 0.0000 0.0000
 0.9756 34.0768 -1.6070 105.6610 -31.7951 7.2072 -35.3021 -10.8206 9.4110 -57.7372 3.7360 35.6743 -11.7503 12.5942 48.1182 -59.0823 -36.1808 -14.1378 -16.1132 0.0000 16.4771 0.6935 28.6559 -1.4460 33.1476 -0.0000 26.2537 -16.1912 -21.7769 -34.2141 37.5333 -3.4696 47.6221 11.2896 -0.0000 45.2760 0.6348 -1.4976 22.9747 32.8623 0.0000 -24.3270 -100.2713 -1.0406 26.7496 -10.5131 0.0000 -0.0000 1.4824 12.7794 -6.3288 6.1726 -0.0000 0.0000 26.0035 5.6808 -35.4131 99.5067 -0.0000 0.0000 35.7936 -10.4762 23.0980 9.0122 0.0000 0.0000
 0.9817 34.0756 -1.6109 105.6542 -31.7651 7.2507 -35.2994 -10.8018 9.3981 -57.7524 3.6063 35.6426 -11.7868 12.5806 48.1059 -59.1820 -36.2270 -14.1286 -16.1013 0.0000 16.5060 0.6762 28.6289 -1.4110 33.1476 -0.0000 26.2537 -16.1672 -21.8264 -34.2424 37.4573 -3.4715 47.6523 11.2654 -0.0000 45.3229 0.6276 -1.4839 22.9278 32.8623 0.0000 -24.3270 -100.2760 -1.0291 26.7171 -10.4700 -0.0000 -0.0000 1.4868 12.8554 -6.3375 6.0535 -0.0000 0.0000 26.0026 5.6729 -35.4208 99.4870 -0.0000 -0.0000 35.8820 -10.4773 23.2316 8.9784 -0.0000 0.0000
 0.9893 34.0757 -1.6139 105.6638 -31.7420 7.2966 -35.3084 -10.7741 9.3989 -57.7676 3.5092 35.6133 -11.8089 12.6205 48.0926 -59.3006 -36.2888 -14.1411 -16.1271 0.0000 16.4068 0.5827 28.6836 -1.2140 33.1476 -0.0000 26.2537 -16.1769 -21.8207 -34.2449 37.4859 -3.5185 47.6617 11.2833 -0.0000 45.3235 0.6336 -1.5004 22.8973 32.8623 0.0000 -24.3270 -100.2908 -1.0280 26.6865 -10.4276 0.0000 0.0000 1.4377 12.8595 -6.2531 6.1658 0.0000 0.0000 26.0029 5.6809 -35.4266 99.4892 -0.0000 -0.0000 35.8682 -10.4586 23.3651 8.9542 0.0000 -0.0000
 0.9968 34.0761 -1.6164 105.6795 -31.7262 7.3439 -35.3247 -10.7407 9.4132 -57.7842 3.4451 35.5704 -11.8050 12.6706 48.0404 -59.4655 -36.3704 -14.1447 -16.1326 0.0000 16.4440 0.5695 28.7109 -1.1853 33.1476 -0.0000 26.2537 -16.1429 -21.8839 -34.2885 37.3787 -3.5192 47.6963 11.2443 -0.0000 45.3356 0.5689 -1.3645 22.6371 32.8623 0.0000 -24.3270 -100.3091 -1.0146 26.6643 -10.4012 0.0000 0.0000 1.4278 12.8973 -6.2298 6.1390 -0.0000 -0.0000 25.9892 5.6901 -35.4337 99.5057 0.0000 0.0000 35.8232 -10.4350 23.3580 8.8803 0.0000 0.0000
 1.0038 34.0764 -1.6192 105.6823 -31.7149 7.3727 -35.3227 -10.7210 9.4423 -57.7869 3.3702 35.5367 -11.8662 12.6976 48.0298 -59.5058 -36.4326 -14.1412 -16.1565 0.0000 16.4428 0.5755 28.6399 -1.2005 33.1476 -0.0000 26.2537 -16.0925 -21.9341 -34.3214 37.2653 -3.5109 47.7332 11.2150 -0.0000 45.3874 0.5807 -1.3879 22.7070 32.8623 0.0000 -24.3270 -100.3375 -0.9700 26.6412 -10.3746 0.0000 0.0000 1.4165 12.8773 -6.2421 6.1768 -0.0000 -0.0000 25.9880 5.7109 -35.4245 99.5201 0.0000 -0.0000 35.7931 -10.4204 23.3037 8.9990 -0.0000 -0.0000
 1.0089 34.0764 -1.6220 105.6828 -31.6935 7.3875 -35.3257 -10.7040 9.4796 -57.7676 3.3149 35.4867 -11.9078 12.6892 48.0317 -59.4851 -36.4703 -14.0933 -16.1757 0.0000 16.5818 0.6899 28.5904 -1.4415 33.1476 -0.0000 26.2537 -16.1135 -21.9430 -34.3704 37.2478 -3.5217 47.7556 11.2052 -0.0000 45.4572 0.5982 -1.4231 22.8030 32.8623 0.0000 -24.3270 -100.3634 -0.9186 26.6099 -10.3737 -0.0000 -0.0000 1.4279 12.8467 -6.2617 6.2113 0.0000 0.0000 25.9905 5.7219 -35.3890 99.5307 -0.0000 0.0000 35.7691 -10.4061 23.2544 9.0074 0.0000 0.0000
 1.0139 34.0747 -1.6240 105.6859 -31.6448 7.4240 -35.3635 -10.6897 9.4558 -57.7132 3.2330 35.4783 -11.9598 12.6214 48.0789 -59.3834 -36.4829 -14.0297 -16.1998 0.0000 16.6563 0.6762 28.5887 -1.4130 33.1476 -0.0000 26.2537 -16.1122 -21.9322 -34.3693 37.2971 -3.5413 47.7619 11.1886 -0.0000 45.4650 0.6200 -1.4726 22.8345 32.8623 0.0000 -24.3270 -100.3970 -0.8179 26.5554 -10.3854 0.0000 -0.0000 1.4458 12.7741 -6.2740 6.2024 -0.0000 0.0000 25.9986 5.6958 -35.3640 99.5229 0.0000 -0.0000 35.7902 -10.3674 23.2420 8.9657 -0.0000 0.0000
